<!--?xml version="1.0" encoding="utf-8"?-->
<!-- Generator: Adobe Illustrator 18.0.0, SVG Export Plug-In . SVG Version: 6.00 Build 0)  -->

<svg version="1.1" id="_x32_" xmlns="http://www.w3.org/2000/svg" xmlns:xlink="http://www.w3.org/1999/xlink" x="0px" y="0px" viewBox="0 0 512 512" style="width: 256px; height: 256px; opacity: 1;" xml:space="preserve">
<style type="text/css">
	.st0{fill:#4B4B4B;}
</style>
<g>
	<path class="st0" d="M16.656,148.17v0.141l-0.248-0.141v213.41c0,15.07,8.114,28.974,21.234,36.388L239.454,512V274.119
		L89.92,189.681L16.656,148.17z" style="fill: rgb(75, 75, 75);"></path>
	<polygon class="st0" points="320.935,209.056 320.802,208.981 321.056,208.836 98.094,82.889 55.666,106.872 33.18,119.434 
		33.313,119.508 33.059,119.651 255.94,245.598 298.264,221.706 	" style="fill: rgb(75, 75, 75);"></polygon>
	<path class="st0" d="M396.642,166.14l54.239-30.628l27.819-15.563l-0.129-0.073l0.25-0.141L276.506,5.407
		c-12.762-7.21-28.37-7.21-41.131,0.004l-40.627,22.965l-20.784,11.601l0.129,0.072l-0.25,0.143L396.642,166.14z" style="fill: rgb(75, 75, 75);"></path>
	<path class="st0" d="M495.591,148.307l-0.121,0.068v-0.286l-82.096,46.405v103.858L362.9,326.879l-25.36,14.193V271.27
		l0.121-33.695l-0.121,0.068v-0.288l-65.116,36.764V512l65.116-36.762l75.834-42.861l60.868-34.407
		c13.117-7.416,21.228-21.317,21.228-36.386V218.526L495.591,148.307z" style="fill: rgb(75, 75, 75);"></path>
</g>
</svg>
