<!--?xml version="1.0" encoding="utf-8"?-->
<!-- Generator: Adobe Illustrator 18.0.0, SVG Export Plug-In . SVG Version: 6.00 Build 0)  -->

<svg version="1.1" id="_x32_" xmlns="http://www.w3.org/2000/svg" xmlns:xlink="http://www.w3.org/1999/xlink" x="0px" y="0px" viewBox="0 0 512 512" style="width: 256px; height: 256px; opacity: 1;" xml:space="preserve">
<style type="text/css">
	.st0{fill:#4B4B4B;}
</style>
<g>
	<path class="st0" d="M440.488,0H71.512c-13.129,0-23.81,10.683-23.81,23.812v464.38c0,13.129,10.681,23.808,23.81,23.808h368.976
		c13.129,0,23.81-10.679,23.81-23.808V23.812C464.298,10.683,453.617,0,440.488,0z M277.019,454.469
		c0,11.603-9.429,21.04-21.019,21.04c-11.59,0-21.019-9.437-21.019-21.04c0-11.603,9.429-21.04,21.019-21.04
		C267.59,433.428,277.019,442.866,277.019,454.469z M89.639,405.373V50.058h332.722v355.315H89.639z" style="fill: rgb(75, 75, 75);"></path>
</g>
</svg>
